<svg xmlns="http://www.w3.org/2000/svg" width="738" height="88" viewBox="-0.7 119.3 738.1 87.8"><path d="M5.48 127.48L5.27 126.22L32.88 126.22Q38.15 126.22 43.16 127.17Q48.17 128.12 52.17 130.44Q56.18 132.75 58.50 136.92Q60.82 141.08 60.82 147.51Q60.82 153.83 57.71 158.68Q54.60 163.53 49.49 166.22Q44.37 168.91 38.26 168.91Q32.78 168.91 29.25 168.01Q25.72 167.12 23.19 165.96L23.19 176.18Q23.19 183.87 23.50 188.41Q23.82 192.94 24.82 195.15Q25.82 197.37 27.88 198.05Q29.93 198.74 33.52 198.74L33.73 200L5.27 200L5.48 198.74Q9.06 198.74 11.12 198.05Q13.18 197.37 14.18 195.15Q15.18 192.94 15.49 188.41Q15.81 183.87 15.81 176.18L15.81 150.04Q15.81 142.35 15.49 137.81Q15.18 133.28 14.18 131.07Q13.18 128.85 11.12 128.17Q9.06 127.48 5.48 127.48M30.04 128.64L23.19 128.64L23.19 163.32Q25.93 164.80 29.78 165.53Q33.62 166.27 36.47 166.27Q40.90 166.27 44.53 164.32Q48.17 162.37 50.38 158.26Q52.59 154.15 52.59 147.51Q52.59 141.29 50.54 137.55Q48.48 133.81 45.16 131.86Q41.84 129.91 37.84 129.28Q33.83 128.64 30.04 128.64 M116.89 195.36Q116.89 192.94 115.47 188.62Q114.04 184.30 111.30 176.92L79.16 176.92Q76.94 183.45 75.78 187.67Q74.62 191.88 74.62 194.31Q74.62 197.37 76.63 198.05Q78.63 198.74 82.63 198.74L82.84 200L59.13 200L59.34 198.74Q62.08 198.74 64.14 198.10Q66.19 197.47 67.98 195.36Q69.77 193.25 71.78 188.83Q73.78 184.40 76.42 176.71L85.80 149.62Q87.90 143.61 88.96 140.19Q90.01 136.76 90.38 134.86Q90.75 132.97 90.75 131.60Q90.75 129.17 89.27 128.28Q87.80 127.38 83.58 127.38L83.37 126.22L100.76 126.22L119.42 176.71Q122.26 184.40 124.11 188.83Q125.95 193.25 127.53 195.36Q129.12 197.47 130.91 198.10Q132.70 198.74 135.54 198.74L135.76 200L109.41 200L109.62 198.74Q113.31 198.74 115.10 198.16Q116.89 197.58 116.89 195.36M110.46 174.39L94.86 131.91L80 174.39 M218.81 150.04L218.81 176.18Q218.81 183.87 219.13 188.41Q219.44 192.94 220.44 195.15Q221.45 197.37 223.50 198.05Q225.56 198.74 229.14 198.74L229.35 200L201.10 200L201.31 198.74Q204.90 198.74 206.95 198.05Q209.01 197.37 209.96 195.15Q210.91 192.94 211.17 188.41Q211.43 183.87 211.43 176.18L211.43 131.60L181.92 198.95L151.46 141.92L151.46 175.97Q151.46 183.66 151.93 188.25Q152.41 192.83 153.67 195.10Q154.94 197.37 157.20 198.05Q159.47 198.74 163.05 198.74L163.26 200L137.34 200L137.55 198.74Q141.13 198.74 143.34 198.05Q145.56 197.37 146.77 195.10Q147.98 192.83 148.40 188.25Q148.82 183.66 148.82 175.97L148.82 150.15Q148.82 142.35 148.40 137.81Q147.98 133.28 146.77 131.02Q145.56 128.75 143.34 128.06Q141.13 127.38 137.55 127.38L137.34 126.22L151.46 126.22L184.03 187.67L210.91 126.22L229.35 126.22L229.14 127.38Q225.56 127.38 223.50 128.06Q221.45 128.75 220.44 131.02Q219.44 133.28 219.13 137.81Q218.81 142.35 218.81 150.04 M312.30 162.37Q312.30 173.12 307.98 181.92Q303.66 190.72 295.49 195.89Q287.32 201.05 275.73 201.05Q267.08 201.05 260.18 198.05Q253.28 195.05 248.38 189.78Q243.47 184.51 240.89 177.44Q238.31 170.38 238.31 162.37Q238.31 151.62 242.68 143.24Q247.06 134.86 255.23 130.07Q263.39 125.27 274.88 125.27Q286.48 125.27 294.86 130.07Q303.24 134.86 307.77 143.24Q312.30 151.62 312.30 162.37M303.13 163.11Q303.13 152.89 299.92 144.88Q296.70 136.87 290.43 132.28Q284.16 127.70 274.88 127.70Q265.71 127.70 259.60 132.28Q253.49 136.87 250.48 144.88Q247.48 152.89 247.48 163.11Q247.48 173.33 250.69 181.40Q253.91 189.46 260.23 194.04Q266.56 198.63 275.73 198.63Q285 198.63 291.06 194.04Q297.12 189.46 300.13 181.40Q303.13 173.33 303.13 163.11 M342.13 198.63Q346.45 198.63 350.14 197.21Q353.83 195.78 356.15 192.57Q358.47 189.35 358.47 183.98Q358.47 179.55 355.83 176.23Q353.20 172.91 349.03 170.22Q344.87 167.54 340.23 164.90Q335.59 162.27 331.43 159.21Q327.27 156.15 324.63 152.15Q322 148.14 322 142.66Q322 137.39 324.79 133.49Q327.58 129.59 332.27 127.43Q336.96 125.27 342.66 125.27Q347.82 125.27 353.14 126.54Q358.47 127.80 362.05 129.59Q362.05 134.55 361.52 139.18Q361 143.82 360.47 147.72L358.89 147.30Q358.89 140.03 356.41 135.71Q353.93 131.38 350.19 129.49Q346.45 127.59 342.76 127.59Q336.65 127.59 332.85 131.23Q329.06 134.86 329.06 140.45Q329.06 145.09 331.69 148.35Q334.33 151.62 338.49 154.20Q342.66 156.79 347.29 159.26Q351.93 161.74 356.09 164.69Q360.26 167.64 362.89 171.70Q365.53 175.76 365.53 181.45Q365.53 188.41 362.10 192.73Q358.68 197.05 353.30 199.05Q347.93 201.05 342.02 201.05Q338.76 201.05 335.01 200.37Q331.27 199.68 327.79 198.21Q324.32 196.73 321.79 194.41Q321.79 189.46 322.21 185.35Q322.63 181.24 323.05 177.34L324.63 177.66Q324.63 184.82 327.06 189.51Q329.48 194.20 333.49 196.42Q337.49 198.63 342.13 198.63" fill="#ffffff"/><rect x="409.3" y="125.3" width="2" height="75.8" fill="#ffffff" opacity="0.55"/><path d="M458.68 171.35L451.78 171.35L451.78 154.97L458.68 154.97Q461.31 154.97 463.31 156Q465.31 157.03 466.42 158.88Q467.53 160.73 467.53 163.16Q467.53 165.60 466.42 167.44Q465.31 169.29 463.31 170.32Q461.31 171.35 458.68 171.35M454.12 157.01L454.12 169.32L458.54 169.32Q460.58 169.32 462.07 168.54Q463.55 167.77 464.37 166.38Q465.19 164.99 465.19 163.16Q465.19 161.31 464.37 159.93Q463.55 158.55 462.07 157.78Q460.58 157.01 458.54 157.01 M492.36 171.35L480.47 171.35L480.47 154.97L492.03 154.97L492.03 157.01L482.81 157.01L482.81 169.32L492.36 169.32L492.36 171.35M491.02 164.03L482.60 164.03L482.60 162.04L491.02 162.04 M512.55 171.35L510.23 171.35L503.03 154.97L505.55 154.97L512.18 170.09L510.73 170.09L517.39 154.97L519.73 154.97 M543.42 171.35L531.53 171.35L531.53 154.97L543.09 154.97L543.09 157.01L533.87 157.01L533.87 169.32L543.42 169.32L543.42 171.35M542.08 164.03L533.66 164.03L533.66 162.04L542.08 162.04 M567.78 171.35L556.57 171.35L556.57 154.97L558.91 154.97L558.91 169.32L567.78 169.32 M587.22 171.54Q585.35 171.54 583.75 170.91Q582.14 170.28 580.97 169.14Q579.80 168.01 579.15 166.49Q578.49 164.96 578.49 163.16Q578.49 161.36 579.15 159.84Q579.80 158.32 580.97 157.18Q582.14 156.05 583.73 155.42Q585.33 154.79 587.22 154.79Q589.09 154.79 590.67 155.41Q592.25 156.03 593.43 157.16Q594.61 158.30 595.26 159.82Q595.90 161.34 595.90 163.16Q595.90 164.99 595.26 166.51Q594.61 168.03 593.43 169.16Q592.25 170.30 590.67 170.92Q589.09 171.54 587.22 171.54M587.22 169.46Q588.58 169.46 589.74 168.99Q590.89 168.52 591.75 167.67Q592.60 166.81 593.08 165.67Q593.56 164.52 593.56 163.16Q593.56 161.81 593.08 160.66Q592.60 159.51 591.75 158.66Q590.89 157.80 589.74 157.34Q588.58 156.87 587.22 156.87Q585.84 156.87 584.68 157.34Q583.52 157.80 582.66 158.66Q581.79 159.51 581.31 160.66Q580.83 161.81 580.83 163.16Q580.83 164.52 581.31 165.67Q581.79 166.81 582.66 167.67Q583.52 168.52 584.68 168.99Q585.84 169.46 587.22 169.46 M611.18 171.35L608.84 171.35L608.84 154.97L615.23 154.97Q617.38 154.97 618.90 155.65Q620.42 156.33 621.24 157.62Q622.06 158.90 622.06 160.68Q622.06 162.46 621.24 163.74Q620.42 165.01 618.90 165.70Q617.38 166.39 615.23 166.39L610.13 166.39L611.18 165.29L611.18 171.35M611.18 155.84L611.18 165.53L610.13 164.36L615.16 164.36Q617.41 164.36 618.56 163.40Q619.72 162.44 619.72 160.68Q619.72 158.93 618.56 157.97Q617.41 157.01 615.16 157.01L610.13 157.01 M637.34 171.35L635.10 171.35L635.10 154.97L637.02 154.97L644.36 167.35L643.33 167.35L650.59 154.97L652.51 154.97L652.53 171.35L650.28 171.35L650.26 158.51L650.80 158.51L644.34 169.36L643.26 169.36L636.76 158.51L637.34 158.51 M678.69 171.35L666.80 171.35L666.80 154.97L678.36 154.97L678.36 157.01L669.14 157.01L669.14 169.32L678.69 169.32L678.69 171.35M677.36 164.03L668.93 164.03L668.93 162.04L677.36 162.04 M694.18 171.35L691.84 171.35L691.84 154.97L693.76 154.97L704.59 168.43L703.59 168.43L703.59 154.97L705.93 154.97L705.93 171.35L704.01 171.35L693.18 157.90L694.18 157.90 M725.77 171.35L723.46 171.35L723.46 157.01L717.84 157.01L717.84 154.97L731.39 154.97L731.39 157.01L725.77 157.01" fill="#ffffff"/></svg>