<?xml version="1.0" encoding="UTF-8"?>
<svg xmlns="http://www.w3.org/2000/svg" version="1.1" viewBox="102.05 135.06 640.29 157.07">
  <defs>
    <style>
      .cls-1 {
        stroke: #fff;
      }

      .cls-1, .cls-2 {
        fill: none;
        stroke-miterlimit: 10;
        stroke-width: 4px;
      }

      .cls-3 {
        font-family: GildaDisplay-Regular, 'Gilda Display';
        font-size: 115.97px;
      }

      .cls-3, .cls-4 {
        fill: #fff;
      }

      .cls-4 {
        font-family: Gotham-Medium, Gotham;
        font-size: 21.61px;
        font-weight: 500;
        letter-spacing: 1.6em;
      }

      .cls-2 {
        stroke: #000;
      }
    </style>
  </defs>
  <!-- Generator: Adobe Illustrator 28.6.0, SVG Export Plug-In . SVG Version: 1.2.0 Build 709)  -->
  <g>
    <g id="Warstwa_1">
      <g>
        <text class="cls-3" transform="translate(334.23 257.35)"><tspan x="0" y="0">PAMOS</tspan></text>
        <text class="cls-4" transform="translate(559.03 287.75)"><tspan x="0" y="0">HOME</tspan></text>
        <g>
          <path class="cls-1" d="M210.69,185.77c2.69-23.12,22.48-41.21,46.29-41.21,12.83,0,24.47,5.24,32.92,13.7,7.67,7.67,12.69,17.95,13.56,29.37"/>
          <path class="cls-2" d="M242.34,297.97"/>
          <polyline class="cls-1" points="303.6 188.06 303.6 191.17 303.6 201.55 303.6 284.48 262.82 284.48"/>
          <path class="cls-1" d="M303.46,187.62c.09,1.17.13,2.36.13,3.55v10.38"/>
          <g>
            <path class="cls-1" d="M264.5,208.1v18.65c-5.01.3-8.97,4.46-8.97,9.53v12.16h-64.06v-12.16c0-5.25-4.31-9.56-9.57-9.56h-.82v-18.61c0-4.98,1.65-9.6,4.45-13.33,4.08-5.46,10.59-9,17.88-9h38.75c12.28,0,22.33,10.05,22.33,22.33Z"/>
            <rect class="cls-1" x="191.47" y="248.43" width="64.06" height="18.21"/>
            <path class="cls-1" d="M276.29,271.01c0,3.72-1.51,7.07-3.95,9.52-2.44,2.45-5.82,3.95-9.52,3.95h-78.26c-7.41,0-13.49-6.06-13.49-13.47,0-2.04.46-3.96,1.28-5.68v-38.61h9.56c5.26,0,9.57,4.31,9.57,9.56v30.37h64.06v-30.37c0-5.07,3.96-9.23,8.97-9.53.2-.03.4-.03.59-.03h9.55v37.85c1.05,1.92,1.64,4.11,1.64,6.44Z"/>
          </g>
          <g>
            <path class="cls-1" d="M185.87,284.48c-.85.17-1.73.27-2.63.27h-62.27c-7.09,0-12.89-5.8-12.89-12.89v-64.4c0-7.09,5.8-12.89,12.89-12.89h62.27c.78,0,1.56.08,2.3.2-2.79,3.73-4.45,8.35-4.45,13.33v18.61h-8.74v38.61c-.82,1.72-1.28,3.64-1.28,5.68,0,7.41,6.08,13.47,13.49,13.47h1.31Z"/>
            <line class="cls-1" x1="181.09" y1="225.34" x2="108.08" y2="225.34"/>
            <line class="cls-1" x1="172.34" y1="255.2" x2="108.08" y2="255.2"/>
            <rect class="cls-1" x="146.87" y="210.83" width="10.62" height=".12" rx=".03" ry=".03"/>
            <rect class="cls-1" x="146.87" y="240.21" width="10.62" height=".12" rx=".03" ry=".03"/>
            <rect class="cls-1" x="146.87" y="270.07" width="10.62" height=".12" rx=".03" ry=".03"/>
          </g>
          <path class="cls-1" d="M160.86,150.74v-3.81c0-3.01-2.47-5.48-5.49-5.48h-5.8c-3.03,0-5.48,2.47-5.48,5.48v3.81c-8.11,3.29-13.83,11.25-13.83,20.56,0,4.92,1.61,9.47,4.33,13.15,2.44,3.33,5.8,5.96,9.7,7.51,2.53.99,5.28,1.55,8.17,1.55s5.66-.56,8.2-1.56c3.83-1.51,7.13-4.08,9.56-7.31,2.81-3.71,4.47-8.33,4.47-13.34,0-9.29-5.73-17.26-13.82-20.56ZM152.46,162.41c4.91,0,8.88,3.99,8.88,8.89s-3.97,8.89-8.88,8.89-8.87-3.97-8.87-8.89,3.97-8.89,8.87-8.89Z"/>
        </g>
      </g>
    </g>
  </g>
</svg>